<?xml version="1.0" standalone="no"?>
<!DOCTYPE svg PUBLIC "-//W3C//DTD SVG 20010904//EN"
 "http://www.w3.org/TR/2001/REC-SVG-20010904/DTD/svg10.dtd">
<svg version="1.0" xmlns="http://www.w3.org/2000/svg"
 width="1024.000000pt" height="1024.000000pt" viewBox="0 0 1024.000000 1024.000000"
 preserveAspectRatio="xMidYMid meet">
<metadata>
Created by potrace 1.16, written by Peter Selinger 2001-2019
</metadata>
<g transform="translate(0.000000,1024.000000) scale(0.100000,-0.100000)"
fill="#000000" stroke="none">
<path d="M4054 10164 c-658 -79 -1225 -434 -1693 -1058 -253 -337 -486 -802
-667 -1330 -200 -584 -389 -1474 -458 -2161 -55 -544 -55 -1097 0 -1580 144
-1270 678 -2344 1514 -3042 425 -356 917 -596 1458 -713 57 -12 106 -19 109
-16 4 3 -2 6 -11 6 -35 0 -345 110 -486 173 -320 142 -587 314 -860 554 -795
699 -1302 1752 -1444 2998 -55 486 -52 1098 9 1630 105 911 325 1828 593 2475
140 338 270 583 452 855 211 314 519 622 809 809 262 169 590 293 896 340 244
38 416 40 722 11 26 -2 -1 4 -62 15 -282 49 -643 63 -881 34z"/>
<path d="M5100 10094 c704 -196 1312 -600 1875 -1247 241 -278 511 -662 722
-1032 607 -1059 942 -2305 943 -3502 l0 -231 73 -12 c39 -6 90 -13 112 -16 22
-3 53 -8 69 -11 l29 -5 -6 298 c-10 465 -49 824 -137 1270 -228 1147 -751
2264 -1459 3114 -119 143 -382 412 -521 535 -408 358 -849 612 -1314 755 -85
27 -341 87 -396 94 -44 5 -44 5 10 -10z"/>
<path d="M3202 7769 l3 -42 218 -92 218 -92 -1 -1889 c0 -1334 -4 -1890 -11
-1895 -6 -4 -103 -44 -215 -90 l-204 -83 0 -50 0 -51 922 2 c508 2 926 3 931
3 4 0 7 22 7 48 l0 48 -208 88 -209 87 -7 681 -6 681 23 36 c81 122 248 134
375 26 150 -127 280 -471 337 -895 26 -191 44 -287 69 -355 85 -234 261 -362
569 -415 382 -64 712 -17 949 135 99 64 148 112 148 144 0 51 -46 67 -91 32
-91 -71 -205 -77 -279 -15 -47 40 -101 166 -180 419 -120 385 -190 550 -306
728 -74 113 -207 256 -299 322 -128 91 -290 155 -455 180 -107 17 -305 19
-395 6 -33 -5 -80 -12 -105 -15 l-45 -6 40 25 c130 82 412 208 690 310 618
225 887 397 1010 648 62 126 79 217 72 372 -7 134 -40 295 -82 394 -122 291
-344 457 -725 541 -271 60 -514 69 -1738 70 l-1023 0 3 -41z m1934 -60 c124
-23 268 -106 382 -221 250 -253 335 -608 238 -990 -67 -263 -178 -399 -528
-647 -217 -154 -344 -256 -476 -385 l-113 -110 4 990 c2 872 5 995 19 1041 54
175 149 282 281 318 64 17 116 18 193 4z"/>
<path d="M7178 6434 c33 -64 91 -192 144 -314 289 -667 452 -1279 520 -1940
16 -161 16 -698 0 -850 -71 -651 -271 -1227 -603 -1730 -452 -686 -1098 -1161
-1789 -1315 -238 -53 -305 -60 -642 -60 l-316 0 141 -22 c841 -133 1626 90
2267 643 696 600 1134 1489 1220 2479 17 183 14 587 -4 794 -50 551 -188 1120
-411 1691 -80 205 -165 400 -231 532 -49 98 -52 100 -184 112 -36 4 -80 9 -98
13 l-34 6 20 -39z"/>
</g>
</svg>
