<?xml version="1.0" standalone="no"?>
<!DOCTYPE svg PUBLIC "-//W3C//DTD SVG 20010904//EN"
 "http://www.w3.org/TR/2001/REC-SVG-20010904/DTD/svg10.dtd">
<svg version="1.0" xmlns="http://www.w3.org/2000/svg"
 width="256.000000pt" height="256.000000pt" viewBox="0 0 256.000000 256.000000"
 preserveAspectRatio="xMidYMid meet">
<metadata>
Created by potrace 1.16, written by Peter Selinger 2001-2019
</metadata>
<g transform="translate(0.000000,256.000000) scale(0.100000,-0.100000)"
fill="#000000" stroke="none">
<path d="M62 2286 c-13 -7 -32 -26 -43 -42 -18 -28 -19 -55 -19 -799 0 -744 1
-771 19 -799 11 -16 30 -35 43 -42 18 -11 265 -13 1216 -14 1108 0 1196 1
1223 17 61 36 59 8 59 843 0 838 3 796 -60 834 -26 15 -134 16 -1222 16 -951
-1 -1198 -3 -1216 -14z m2388 -721 l0 -625 -1170 0 -1170 0 0 625 0 625 1170
0 1170 0 0 -625z m-937 -756 c50 -23 55 -93 8 -118 -27 -15 -455 -15 -482 0
-45 24 -45 90 0 114 33 18 436 21 474 4z"/>
<path d="M1044 765 c-4 -8 -4 -22 0 -30 5 -13 38 -15 238 -13 l233 3 0 25 0
25 -233 3 c-200 2 -233 0 -238 -13z"/>
<path d="M1026 472 c-14 -42 -26 -80 -26 -85 0 -4 126 -7 280 -7 154 0 280 3
280 7 0 5 -12 43 -26 85 l-26 78 -228 0 -228 0 -26 -78z"/>
<path d="M684 331 c-48 -12 -98 -47 -128 -89 -14 -21 -26 -41 -26 -45 0 -4
338 -7 750 -7 413 0 750 3 750 8 0 22 -56 85 -98 109 l-47 28 -585 2 c-322 1
-599 -2 -616 -6z"/>
</g>
</svg>
