<?xml version="1.0" standalone="no"?>
<!DOCTYPE svg PUBLIC "-//W3C//DTD SVG 20010904//EN"
 "http://www.w3.org/TR/2001/REC-SVG-20010904/DTD/svg10.dtd">
<svg version="1.0" xmlns="http://www.w3.org/2000/svg"
 width="1024.000000pt" height="1024.000000pt" viewBox="0 0 1024.000000 1024.000000"
 preserveAspectRatio="xMidYMid meet">

<g transform="translate(0.000000,1024.000000) scale(0.100000,-0.100000)"
fill="#000000" stroke="none">
<path d="M363 9195 c-85 -23 -153 -64 -218 -129 -33 -33 -72 -84 -87 -112 -62
-116 -58 120 -58 -3167 0 -3327 -5 -3074 66 -3194 69 -114 175 -197 298 -229
43 -12 810 -14 4751 -14 4135 0 4708 2 4758 15 178 46 319 194 356 373 8 38
11 899 11 3043 0 3316 5 3066 -66 3186 -62 106 -183 198 -298 229 -78 21
-9436 19 -9513 -1z m9408 -435 c19 -11 19 -49 19 -2505 l0 -2495 -4670 0
-4670 0 0 2495 c0 2365 1 2495 18 2504 24 15 9276 15 9303 1z m-3717 -5520
c57 -22 110 -70 143 -132 25 -47 25 -179 -1 -232 -24 -47 -75 -98 -124 -123
-35 -17 -88 -18 -942 -21 -1015 -3 -949 -7 -1032 72 -144 137 -81 388 112 447
14 4 422 8 907 8 865 1 883 1 937 -19z"/>
<path d="M4209 3097 c-39 -26 -66 -89 -55 -131 4 -15 22 -44 41 -64 l33 -37
885 0 c879 0 886 0 914 21 72 52 79 142 16 201 l-34 33 -883 0 -883 0 -34 -23z"/>
<path d="M4195 2168 c-30 -82 -215 -633 -215 -639 0 -5 513 -9 1140 -9 627 0
1140 4 1140 8 0 5 -49 152 -109 328 l-108 319 -922 3 c-732 2 -923 0 -926 -10z"/>
<path d="M2807 1340 c-290 -49 -546 -247 -667 -514 -17 -36 -30 -68 -30 -71 0
-3 1355 -5 3010 -5 1656 0 3010 3 3010 7 0 16 -82 173 -114 218 -54 75 -163
181 -236 229 -77 51 -136 78 -245 114 l-80 26 -2300 2 c-1265 1 -2322 -2
-2348 -6z"/>
</g>
</svg>
